# xmcd
#
# Track frame offsets: 
#        150
#        15510
#        30917
#        49852
#        65965
#        81207
#        98275
#        113417
#        124675
#        138672
#        152760
#        167300
#
# Disc length: 2481 seconds
#
# Revision: 11
# Processed by: cddbd v1.5.2PL0 Copyright (c) Steve Scherf et al.
# Submitted via: ExactAudioCopy v1.0b3
#
DISCID=8809af0c
DTITLE=Ketevan ''Katie'' Melua - Call Off the Search
DYEAR=2004
DGENRE=Jazz
TTITLE0=Call Off The Search
TTITLE1=Crawling Up A Hill
TTITLE2=The Closest Thing To Crazy
TTITLE3=My Aphrodisiac Is You
TTITLE4=Learnin' The Blues
TTITLE5=Blame It On The Moon
TTITLE6=Belfast (Penguins And Cats)
TTITLE7=I Think It's Going To Rain Today
TTITLE8=Mockingbird Song
TTITLE9=Tiger In The Night
TTITLE10=Faraway Voice
TTITLE11=Lilac Wine
EXTD=YEAR: 2004
EXTT0=
EXTT1=
EXTT2=
EXTT3=
EXTT4=
EXTT5=
EXTT6=
EXTT7=
EXTT8=
EXTT9=
EXTT10=
EXTT11=
PLAYORDER=
